  0
SECTION
  2
HEADER
  9
$ACADVER
  1
AC1014
  9
$HANDSEED
  5
FFFF
  9
$MEASUREMENT
 70
     1
  0
ENDSEC
  0
SECTION
  2
TABLES
  0
TABLE
  2
VPORT
  5
8
330
0
100
AcDbSymbolTable
 70
     4
  0
VPORT
  5
2E
330
8
100
AcDbSymbolTableRecord
100
AcDbViewportTableRecord
  2
*ACTIVE
 70
     0
 10
0.0
 20
0.0
 11
1.0
 21
1.0
 12
210.0
 22
148.5
 13
0.0
 23
0.0
 14
10.0
 24
10.0
 15
10.0
 25
10.0
 16
0.0
 26
0.0
 36
1.0
 17
0.0
 27
0.0
 37
0.0
 40
341.0
 41
1.24
 42
50.0
 43
0.0
 44
0.0
 50
0.0
 51
0.0
 71
     0
 72
   100
 73
     1
 74
     3
 75
     0
 76
     0
 77
     0
 78
     0
  0
ENDTAB
  0
TABLE
  2
LTYPE
  5
5
330
0
100
AcDbSymbolTable
 70
     1
  0
LTYPE
  5
14
330
5
100
AcDbSymbolTableRecord
100
AcDbLinetypeTableRecord
  2
BYBLOCK
 70
     0
  3

 72
    65
 73
     0
 40
0.0
  0
LTYPE
  5
15
330
5
100
AcDbSymbolTableRecord
100
AcDbLinetypeTableRecord
  2
BYLAYER
 70
     0
  3

 72
    65
 73
     0
 40
0.0
  0
LTYPE
  5
16
330
5
100
AcDbSymbolTableRecord
100
AcDbLinetypeTableRecord
  2
CONTINUOUS
 70
     0
  3
Solid line
 72
    65
 73
     0
 40
0.0
  0
ENDTAB
  0
TABLE
  2
LAYER
  5
2
100
AcDbSymbolTable
 70
2
  0
LAYER
  5
50
100
AcDbSymbolTableRecord
100
AcDbLayerTableRecord
  2
0
 70
0
  6
CONTINUOUS
  0
LAYER
  5
51
100
AcDbSymbolTableRecord
100
AcDbLayerTableRecord
  2
frontwall_lower
 70
0
  6
CONTINUOUS
  0
ENDTAB
  0
TABLE
  2
STYLE
  5
3
330
0
100
AcDbSymbolTable
 70
     1
  0
STYLE
  5
11
330
3
100
AcDbSymbolTableRecord
100
AcDbTextStyleTableRecord
  2
STANDARD
 70
     0
 40
0.0
 41
1.0
 50
0.0
 71
     0
 42
2.5
  3
txt
  4

  0
ENDTAB
  0
TABLE
  2
VIEW
  5
6
330
0
100
AcDbSymbolTable
 70
     0
  0
ENDTAB
  0
TABLE
  2
UCS
  5
7
330
0
100
AcDbSymbolTable
 70
     0
  0
ENDTAB
  0
TABLE
  2
APPID
  5
9
330
0
100
AcDbSymbolTable
 70
     2
  0
APPID
  5
12
330
9
100
AcDbSymbolTableRecord
100
AcDbRegAppTableRecord
  2
ACAD
 70
     0
  0
ENDTAB
  0
TABLE
  2
DIMSTYLE
  5
A
330
0
100
AcDbSymbolTable
 70
     1
  0
DIMSTYLE
105
27
330
A
100
AcDbSymbolTableRecord
100
AcDbDimStyleTableRecord
  2
ISO-25
 70
     0
  3

  4

  5

  6

  7

 40
1.0
 41
2.5
 42
0.625
 43
3.75
 44
1.25
 45
0.0
 46
0.0
 47
0.0
 48
0.0
140
2.5
141
2.5
142
0.0
143
0.03937007874016
144
1.0
145
0.0
146
1.0
147
0.625
 71
     0
 72
     0
 73
     0
 74
     0
 75
     0
 76
     0
 77
     1
 78
     8
170
     0
171
     3
172
     1
173
     0
174
     0
175
     0
176
     0
177
     0
178
     0
270
     2
271
     2
272
     2
273
     2
274
     3
340
11
275
     0
280
     0
281
     0
282
     0
283
     0
284
     8
285
     0
286
     0
287
     3
288
     0
  0
ENDTAB
  0
TABLE
  2
BLOCK_RECORD
  5
1
330
0
100
AcDbSymbolTable
 70
     1
  0
BLOCK_RECORD
  5
1F
330
1
100
AcDbSymbolTableRecord
100
AcDbBlockTableRecord
  2
*MODEL_SPACE
  0
BLOCK_RECORD
  5
1B
330
1
100
AcDbSymbolTableRecord
100
AcDbBlockTableRecord
  2
*PAPER_SPACE
  0
ENDTAB
  0
ENDSEC
  0
SECTION
  2
BLOCKS
  0
BLOCK
  5
20
330
1F
100
AcDbEntity
  8
0
100
AcDbBlockBegin
  2
*MODEL_SPACE
 70
     0
 10
0.0
 20
0.0
 30
0.0
  3
*MODEL_SPACE
  1

  0
ENDBLK
  5
21
330
1F
100
AcDbEntity
  8
0
100
AcDbBlockEnd
  0
BLOCK
  5
1C
330
1B
100
AcDbEntity
 67
     1
  8
0
100
AcDbBlockBegin
  2
*PAPER_SPACE
  1

  0
ENDBLK
  5
1D
330
1B
100
AcDbEntity
 67
     1
  8
0
100
AcDbBlockEnd
  0
ENDSEC
  0
SECTION
  2
ENTITIES
  0
LWPOLYLINE
  5
100
100
AcDbEntity
  8
frontwall_lower
 62
1
100
AcDbPolyline
 90
86
 70
0
 10
0.000000
 20
44.007652
 30
0.0
 10
0.000000
 20
132.907652
 30
0.0
 10
0.000000
 20
132.904477
 30
0.0
 10
0.000000
 20
139.272469
 30
0.0
 10
6.135158
 20
139.272469
 30
0.0
 10
6.135158
 20
132.904477
 30
0.0
 10
15.862300
 20
132.904477
 30
0.0
 10
15.862300
 20
139.166282
 30
0.0
 10
21.997106
 20
139.166282
 30
0.0
 10
21.997106
 20
132.904477
 30
0.0
 10
32.148639
 20
132.904477
 30
0.0
 10
32.177214
 20
132.904477
 30
0.0
 10
32.177214
 20
139.272469
 30
0.0
 10
38.312372
 20
139.272469
 30
0.0
 10
38.312372
 20
132.904477
 30
0.0
 10
48.039514
 20
132.904477
 30
0.0
 10
48.039514
 20
139.166282
 30
0.0
 10
54.174319
 20
139.166282
 30
0.0
 10
54.174319
 20
132.904477
 30
0.0
 10
64.325853
 20
132.904477
 30
0.0
 10
64.251064
 20
132.904477
 30
0.0
 10
64.251064
 20
139.272469
 30
0.0
 10
70.386222
 20
139.272469
 30
0.0
 10
70.386222
 20
132.904477
 30
0.0
 10
80.113364
 20
132.904477
 30
0.0
 10
80.113364
 20
139.166282
 30
0.0
 10
86.248522
 20
139.166282
 30
0.0
 10
86.248522
 20
132.904477
 30
0.0
 10
96.399703
 20
132.904477
 30
0.0
 10
96.428278
 20
132.904477
 30
0.0
 10
96.428278
 20
139.272469
 30
0.0
 10
102.563436
 20
139.272469
 30
0.0
 10
102.563436
 20
132.904477
 30
0.0
 10
112.290578
 20
132.904477
 30
0.0
 10
112.290578
 20
139.166282
 30
0.0
 10
118.425736
 20
139.166282
 30
0.0
 10
118.425736
 20
132.904477
 30
0.0
 10
128.576917
 20
132.904477
 30
0.0
 10
128.411111
 20
132.904477
 30
0.0
 10
128.411111
 20
139.272469
 30
0.0
 10
134.546269
 20
139.272469
 30
0.0
 10
134.546269
 20
132.904477
 30
0.0
 10
144.273411
 20
132.904477
 30
0.0
 10
144.273411
 20
139.166282
 30
0.0
 10
150.408217
 20
139.166282
 30
0.0
 10
150.408217
 20
132.904477
 30
0.0
 10
160.559750
 20
132.904477
 30
0.0
 10
160.588325
 20
132.904477
 30
0.0
 10
160.588325
 20
139.272469
 30
0.0
 10
166.723483
 20
139.272469
 30
0.0
 10
166.723483
 20
132.904477
 30
0.0
 10
176.450625
 20
132.904477
 30
0.0
 10
176.450625
 20
139.166282
 30
0.0
 10
182.585431
 20
139.166282
 30
0.0
 10
182.585431
 20
132.904477
 30
0.0
 10
192.736964
 20
132.904477
 30
0.0
 10
192.662175
 20
132.904477
 30
0.0
 10
192.662175
 20
139.272469
 30
0.0
 10
198.797333
 20
139.272469
 30
0.0
 10
198.797333
 20
132.904477
 30
0.0
 10
208.524828
 20
132.904477
 30
0.0
 10
208.524828
 20
139.166282
 30
0.0
 10
214.659633
 20
139.166282
 30
0.0
 10
214.659633
 20
132.904477
 30
0.0
 10
224.811167
 20
132.904477
 30
0.0
 10
224.839389
 20
132.904477
 30
0.0
 10
224.839389
 20
139.272469
 30
0.0
 10
230.974194
 20
139.272469
 30
0.0
 10
230.974194
 20
132.904477
 30
0.0
 10
240.702042
 20
132.904477
 30
0.0
 10
240.702042
 20
139.166282
 30
0.0
 10
246.836847
 20
139.166282
 30
0.0
 10
246.836847
 20
132.904477
 30
0.0
 10
256.988381
 20
132.904477
 30
0.0
 10
256.883253
 20
132.904477
 30
0.0
 10
256.883253
 20
139.272469
 30
0.0
 10
263.018058
 20
139.272469
 30
0.0
 10
263.018058
 20
132.904477
 30
0.0
 10
273.264842
 20
132.904477
 30
0.0
 10
273.264842
 20
139.166282
 30
0.0
 10
279.400000
 20
139.166282
 30
0.0
 10
279.400000
 20
132.904477
 30
0.0
 10
279.400000
 20
132.997258
 30
0.0
 10
279.400000
 20
44.097258
 30
0.0
 10
279.400000
 20
44.194271
 30
0.0
 10
-0.000000
 20
44.194271
 30
0.0
  0
ENDSEC
  0
SECTION
  2
OBJECTS
  0
DICTIONARY
  5
C
330
0
100
AcDbDictionary
  3
ACAD_GROUP
350
D
  3
ACAD_MLINESTYLE
350
17
  0
DICTIONARY
  5
D
330
C
100
AcDbDictionary
  0
DICTIONARY
  5
1A
330
C
100
AcDbDictionary
  0
DICTIONARY
  5
17
330
C
100
AcDbDictionary
  3
STANDARD
350
18
  0
DICTIONARY
  5
19
330
C
100
AcDbDictionary
  0
ENDSEC
  0
EOF
