solid OpenSCAD_Model
  facet normal 0 -1 0
    outer loop
      vertex 42.0118 96.9737 0
      vertex 48.1241 96.9737 10
      vertex 42.0118 96.9737 10
    endloop
  endfacet
  facet normal 0 -1 -0
    outer loop
      vertex 48.1241 96.9737 10
      vertex 42.0118 96.9737 0
      vertex 48.1241 96.9737 0
    endloop
  endfacet
  facet normal 1 -0 0
    outer loop
      vertex 48.1241 96.9737 10
      vertex 48.1241 106.956 0
      vertex 48.1241 106.956 10
    endloop
  endfacet
  facet normal 1 0 0
    outer loop
      vertex 48.1241 106.956 0
      vertex 48.1241 96.9737 10
      vertex 48.1241 96.9737 0
    endloop
  endfacet
  facet normal 0 1 -0
    outer loop
      vertex 48.1241 106.956 0
      vertex 42.1138 106.956 10
      vertex 48.1241 106.956 10
    endloop
  endfacet
  facet normal 0 1 0
    outer loop
      vertex 42.1138 106.956 10
      vertex 48.1241 106.956 0
      vertex 42.1138 106.956 0
    endloop
  endfacet
  facet normal 1 -0.000471052 0
    outer loop
      vertex 42.1138 106.956 10
      vertex 42.1166 112.916 0
      vertex 42.1166 112.916 10
    endloop
  endfacet
  facet normal 1 -0.000471052 0
    outer loop
      vertex 42.1166 112.916 0
      vertex 42.1138 106.956 10
      vertex 42.1138 106.956 0
    endloop
  endfacet
  facet normal 3.36549e-05 -1 0
    outer loop
      vertex 42.1166 112.916 10
      vertex 70 112.917 8
      vertex 70 112.917 10
    endloop
  endfacet
  facet normal 3.35693e-05 -1 2.98378e-07
    outer loop
      vertex 42.1166 112.916 0
      vertex 80 112.917 8
      vertex 70 112.917 8
    endloop
  endfacet
  facet normal 3.35693e-05 -1 2.98378e-07
    outer loop
      vertex 80 112.917 8
      vertex 42.1166 112.916 0
      vertex 130 112.919 8
    endloop
  endfacet
  facet normal 3.35693e-05 -1 2.98378e-07
    outer loop
      vertex 130 112.919 8
      vertex 42.1166 112.916 0
      vertex 140 112.919 8
    endloop
  endfacet
  facet normal 3.36185e-05 -1 -3.02637e-07
    outer loop
      vertex 235.243 112.922 0
      vertex 140 112.919 8
      vertex 42.1166 112.916 0
    endloop
  endfacet
  facet normal 3.37601e-05 -1 1.38333e-06
    outer loop
      vertex 140 112.919 8
      vertex 235.243 112.922 0
      vertex 180 112.921 8
    endloop
  endfacet
  facet normal 3.36549e-05 -1 0
    outer loop
      vertex 42.1166 112.916 0
      vertex 70 112.917 8
      vertex 42.1166 112.916 10
    endloop
  endfacet
  facet normal 3.35693e-05 -1 0
    outer loop
      vertex 80 112.917 8
      vertex 130 112.919 10
      vertex 80 112.917 10
    endloop
  endfacet
  facet normal 3.35693e-05 -1 0
    outer loop
      vertex 130 112.919 10
      vertex 80 112.917 8
      vertex 130 112.919 8
    endloop
  endfacet
  facet normal 3.37601e-05 -1 0
    outer loop
      vertex 140 112.919 8
      vertex 180 112.921 10
      vertex 140 112.919 10
    endloop
  endfacet
  facet normal 3.37601e-05 -1 0
    outer loop
      vertex 180 112.921 10
      vertex 140 112.919 8
      vertex 180 112.921 8
    endloop
  endfacet
  facet normal 3.35576e-05 -1 0
    outer loop
      vertex 190 112.921 8
      vertex 235.243 112.922 10
      vertex 190 112.921 10
    endloop
  endfacet
  facet normal 3.35693e-05 -1 6.62345e-08
    outer loop
      vertex 180 112.921 8
      vertex 235.243 112.922 0
      vertex 190 112.921 8
    endloop
  endfacet
  facet normal 3.35576e-05 -1 0
    outer loop
      vertex 190 112.921 8
      vertex 235.243 112.922 0
      vertex 235.243 112.922 10
    endloop
  endfacet
  facet normal -0.999975 0.00706338 0
    outer loop
      vertex 235.087 90.8991 0
      vertex 235.243 112.922 10
      vertex 235.243 112.922 0
    endloop
  endfacet
  facet normal -0.999975 0.00706338 0
    outer loop
      vertex 235.243 112.922 10
      vertex 235.087 90.8991 0
      vertex 235.087 90.8991 10
    endloop
  endfacet
  facet normal 0 1 0
    outer loop
      vertex 235.087 90.8991 10
      vertex 190 90.8991 8
      vertex 190 90.8991 10
    endloop
  endfacet
  facet normal 0 1 0
    outer loop
      vertex 235.087 90.8991 0
      vertex 180 90.8991 8
      vertex 190 90.8991 8
    endloop
  endfacet
  facet normal 0 1 0
    outer loop
      vertex 180 90.8991 8
      vertex 235.087 90.8991 0
      vertex 140 90.8991 8
    endloop
  endfacet
  facet normal 0 1 0
    outer loop
      vertex 140 90.8991 8
      vertex 235.087 90.8991 0
      vertex 130 90.8991 8
    endloop
  endfacet
  facet normal 0 1 0
    outer loop
      vertex 130 90.8991 8
      vertex 42.0153 90.8991 0
      vertex 80 90.8991 8
    endloop
  endfacet
  facet normal 0 1 0
    outer loop
      vertex 130 90.8991 8
      vertex 235.087 90.8991 0
      vertex 42.0153 90.8991 0
    endloop
  endfacet
  facet normal 0 1 -0
    outer loop
      vertex 235.087 90.8991 0
      vertex 190 90.8991 8
      vertex 235.087 90.8991 10
    endloop
  endfacet
  facet normal 0 1 -0
    outer loop
      vertex 180 90.8991 8
      vertex 140 90.8991 10
      vertex 180 90.8991 10
    endloop
  endfacet
  facet normal 0 1 0
    outer loop
      vertex 140 90.8991 10
      vertex 180 90.8991 8
      vertex 140 90.8991 8
    endloop
  endfacet
  facet normal 0 1 -0
    outer loop
      vertex 130 90.8991 8
      vertex 80 90.8991 10
      vertex 130 90.8991 10
    endloop
  endfacet
  facet normal 0 1 0
    outer loop
      vertex 80 90.8991 10
      vertex 130 90.8991 8
      vertex 80 90.8991 8
    endloop
  endfacet
  facet normal 0 1 -0
    outer loop
      vertex 70 90.8991 8
      vertex 42.0153 90.8991 10
      vertex 70 90.8991 10
    endloop
  endfacet
  facet normal 0 1 0
    outer loop
      vertex 70 90.8991 8
      vertex 42.0153 90.8991 0
      vertex 42.0153 90.8991 10
    endloop
  endfacet
  facet normal 0 1 0
    outer loop
      vertex 80 90.8991 8
      vertex 42.0153 90.8991 0
      vertex 70 90.8991 8
    endloop
  endfacet
  facet normal 1 0.000580241 0
    outer loop
      vertex 42.0153 90.8991 10
      vertex 42.0118 96.9737 0
      vertex 42.0118 96.9737 10
    endloop
  endfacet
  facet normal 1 0.000580241 0
    outer loop
      vertex 42.0118 96.9737 0
      vertex 42.0153 90.8991 10
      vertex 42.0153 90.8991 0
    endloop
  endfacet
  facet normal 0 0 -1
    outer loop
      vertex 48.1241 96.9737 0
      vertex 47.1241 97.9737 0
      vertex 48.1241 106.956 0
    endloop
  endfacet
  facet normal 0 0 -1
    outer loop
      vertex 42.0118 96.9737 0
      vertex 47.1241 97.9737 0
      vertex 48.1241 96.9737 0
    endloop
  endfacet
  facet normal 0 0 -1
    outer loop
      vertex 42.0118 96.9737 0
      vertex 41.0106 97.9737 0
      vertex 47.1241 97.9737 0
    endloop
  endfacet
  facet normal 0 0 -1
    outer loop
      vertex 41.0106 97.9737 0
      vertex 42.0118 96.9737 0
      vertex 41.0153 89.8991 0
    endloop
  endfacet
  facet normal 0 0 -1
    outer loop
      vertex 47.1241 105.956 0
      vertex 48.1241 106.956 0
      vertex 47.1241 97.9737 0
    endloop
  endfacet
  facet normal 0 0 -1
    outer loop
      vertex 47.1241 105.956 0
      vertex 42.1138 106.956 0
      vertex 48.1241 106.956 0
    endloop
  endfacet
  facet normal -0 0 -1
    outer loop
      vertex 42.1138 106.956 0
      vertex 41.1128 105.956 0
      vertex 41.1166 113.916 0
    endloop
  endfacet
  facet normal 0 0 -1
    outer loop
      vertex 41.1128 105.956 0
      vertex 42.1138 106.956 0
      vertex 47.1241 105.956 0
    endloop
  endfacet
  facet normal 0 0 -1
    outer loop
      vertex 236.087 89.8991 0
      vertex 235.087 90.8991 0
      vertex 235.243 112.922 0
    endloop
  endfacet
  facet normal 0 0 -1
    outer loop
      vertex 236.087 89.8991 0
      vertex 42.0153 90.8991 0
      vertex 235.087 90.8991 0
    endloop
  endfacet
  facet normal -0 0 -1
    outer loop
      vertex 42.0153 90.8991 0
      vertex 41.0153 89.8991 0
      vertex 42.0118 96.9737 0
    endloop
  endfacet
  facet normal 0 0 -1
    outer loop
      vertex 41.0153 89.8991 0
      vertex 42.0153 90.8991 0
      vertex 236.087 89.8991 0
    endloop
  endfacet
  facet normal 0 0 -1
    outer loop
      vertex 235.243 112.922 0
      vertex 236.257 113.923 0
      vertex 236.087 89.8991 0
    endloop
  endfacet
  facet normal 0 0 -1
    outer loop
      vertex 42.1166 112.916 0
      vertex 236.257 113.923 0
      vertex 235.243 112.922 0
    endloop
  endfacet
  facet normal 0 0 -1
    outer loop
      vertex 42.1166 112.916 0
      vertex 41.1166 113.916 0
      vertex 236.257 113.923 0
    endloop
  endfacet
  facet normal 0 0 -1
    outer loop
      vertex 41.1166 113.916 0
      vertex 42.1166 112.916 0
      vertex 42.1138 106.956 0
    endloop
  endfacet
  facet normal 0 0 1
    outer loop
      vertex 70 113.917 10
      vertex 42.1166 112.916 10
      vertex 70 112.917 10
    endloop
  endfacet
  facet normal 0 0 1
    outer loop
      vertex 42.1166 112.916 10
      vertex 41.1166 113.916 10
      vertex 42.1138 106.956 10
    endloop
  endfacet
  facet normal -0 0 1
    outer loop
      vertex 41.1166 113.916 10
      vertex 42.1166 112.916 10
      vertex 70 113.917 10
    endloop
  endfacet
  facet normal 0 0 1
    outer loop
      vertex 48.1241 106.956 10
      vertex 47.1241 105.956 10
      vertex 48.1241 96.9737 10
    endloop
  endfacet
  facet normal -0 0 1
    outer loop
      vertex 42.1138 106.956 10
      vertex 47.1241 105.956 10
      vertex 48.1241 106.956 10
    endloop
  endfacet
  facet normal 0 0 1
    outer loop
      vertex 42.1138 106.956 10
      vertex 41.1128 105.956 10
      vertex 47.1241 105.956 10
    endloop
  endfacet
  facet normal 0 0 1
    outer loop
      vertex 41.1128 105.956 10
      vertex 42.1138 106.956 10
      vertex 41.1166 113.916 10
    endloop
  endfacet
  facet normal -0 0 1
    outer loop
      vertex 47.1241 97.9737 10
      vertex 48.1241 96.9737 10
      vertex 47.1241 105.956 10
    endloop
  endfacet
  facet normal 0 0 1
    outer loop
      vertex 47.1241 97.9737 10
      vertex 42.0118 96.9737 10
      vertex 48.1241 96.9737 10
    endloop
  endfacet
  facet normal 0 0 1
    outer loop
      vertex 42.0118 96.9737 10
      vertex 41.0106 97.9737 10
      vertex 41.0153 89.8991 10
    endloop
  endfacet
  facet normal -0 0 1
    outer loop
      vertex 41.0106 97.9737 10
      vertex 42.0118 96.9737 10
      vertex 47.1241 97.9737 10
    endloop
  endfacet
  facet normal 0 0 1
    outer loop
      vertex 70 113.917 10
      vertex 80 113.917 10
      vertex 80 114 10
    endloop
  endfacet
  facet normal 0 0 1
    outer loop
      vertex 80 113.917 10
      vertex 70 112.917 10
      vertex 80 112.917 10
    endloop
  endfacet
  facet normal 0 0 1
    outer loop
      vertex 70 113.917 10
      vertex 80 114 10
      vertex 70 114 10
    endloop
  endfacet
  facet normal -0 0 1
    outer loop
      vertex 80 113.917 10
      vertex 130 112.919 10
      vertex 130 113.919 10
    endloop
  endfacet
  facet normal 0 0 1
    outer loop
      vertex 130 112.919 10
      vertex 80 113.917 10
      vertex 80 112.917 10
    endloop
  endfacet
  facet normal 0 0 1
    outer loop
      vertex 130 113.919 10
      vertex 140 113.919 10
      vertex 140 114 10
    endloop
  endfacet
  facet normal 0 0 1
    outer loop
      vertex 140 113.919 10
      vertex 130 112.919 10
      vertex 140 112.919 10
    endloop
  endfacet
  facet normal 0 0 1
    outer loop
      vertex 130 113.919 10
      vertex 140 114 10
      vertex 130 114 10
    endloop
  endfacet
  facet normal -0 0 1
    outer loop
      vertex 140 113.919 10
      vertex 180 112.921 10
      vertex 180 113.921 10
    endloop
  endfacet
  facet normal 0 0 1
    outer loop
      vertex 180 112.921 10
      vertex 140 113.919 10
      vertex 140 112.919 10
    endloop
  endfacet
  facet normal 0 0 1
    outer loop
      vertex 180 113.921 10
      vertex 190 113.921 10
      vertex 190 114 10
    endloop
  endfacet
  facet normal 0 0 1
    outer loop
      vertex 190 113.921 10
      vertex 180 112.921 10
      vertex 190 112.921 10
    endloop
  endfacet
  facet normal 0 0 1
    outer loop
      vertex 180 113.921 10
      vertex 190 114 10
      vertex 180 114 10
    endloop
  endfacet
  facet normal 0 0 1
    outer loop
      vertex 236.257 113.923 10
      vertex 235.243 112.922 10
      vertex 236.087 89.8991 10
    endloop
  endfacet
  facet normal -0 0 1
    outer loop
      vertex 190 113.921 10
      vertex 235.243 112.922 10
      vertex 236.257 113.923 10
    endloop
  endfacet
  facet normal 0 0 1
    outer loop
      vertex 235.243 112.922 10
      vertex 190 113.921 10
      vertex 190 112.921 10
    endloop
  endfacet
  facet normal -0 0 1
    outer loop
      vertex 235.087 90.8991 10
      vertex 236.087 89.8991 10
      vertex 235.243 112.922 10
    endloop
  endfacet
  facet normal -0 0 1
    outer loop
      vertex 190 90.8991 10
      vertex 236.087 89.8991 10
      vertex 235.087 90.8991 10
    endloop
  endfacet
  facet normal 0 0 1
    outer loop
      vertex 190 113.921 10
      vertex 180 113.921 10
      vertex 180 112.921 10
    endloop
  endfacet
  facet normal 0 0 1
    outer loop
      vertex 190 112.921 10
      vertex 180 112.921 10
      vertex 190 90.8991 10
    endloop
  endfacet
  facet normal 0 0 1
    outer loop
      vertex 180 90.8991 10
      vertex 190 90.8991 10
      vertex 180 112.921 10
    endloop
  endfacet
  facet normal -0 0 1
    outer loop
      vertex 180 90.8991 10
      vertex 236.087 89.8991 10
      vertex 190 90.8991 10
    endloop
  endfacet
  facet normal -0 0 1
    outer loop
      vertex 140 90.8991 10
      vertex 236.087 89.8991 10
      vertex 180 90.8991 10
    endloop
  endfacet
  facet normal 0 0 1
    outer loop
      vertex 140 113.919 10
      vertex 130 113.919 10
      vertex 130 112.919 10
    endloop
  endfacet
  facet normal 0 0 1
    outer loop
      vertex 140 112.919 10
      vertex 130 112.919 10
      vertex 140 90.8991 10
    endloop
  endfacet
  facet normal 0 0 1
    outer loop
      vertex 130 90.8991 10
      vertex 140 90.8991 10
      vertex 130 112.919 10
    endloop
  endfacet
  facet normal -0 0 1
    outer loop
      vertex 130 90.8991 10
      vertex 236.087 89.8991 10
      vertex 140 90.8991 10
    endloop
  endfacet
  facet normal 0 0 1
    outer loop
      vertex 41.0153 89.8991 10
      vertex 130 90.8991 10
      vertex 80 90.8991 10
    endloop
  endfacet
  facet normal 0 0 1
    outer loop
      vertex 80 113.917 10
      vertex 70 113.917 10
      vertex 70 112.917 10
    endloop
  endfacet
  facet normal 0 0 1
    outer loop
      vertex 80 112.917 10
      vertex 70 112.917 10
      vertex 80 90.8991 10
    endloop
  endfacet
  facet normal 0 0 1
    outer loop
      vertex 70 90.8991 10
      vertex 80 90.8991 10
      vertex 70 112.917 10
    endloop
  endfacet
  facet normal 0 0 1
    outer loop
      vertex 41.0153 89.8991 10
      vertex 80 90.8991 10
      vertex 70 90.8991 10
    endloop
  endfacet
  facet normal 0 0 1
    outer loop
      vertex 41.0153 89.8991 10
      vertex 70 90.8991 10
      vertex 42.0153 90.8991 10
    endloop
  endfacet
  facet normal 0 0 1
    outer loop
      vertex 130 90.8991 10
      vertex 41.0153 89.8991 10
      vertex 236.087 89.8991 10
    endloop
  endfacet
  facet normal 0 0 1
    outer loop
      vertex 41.0153 89.8991 10
      vertex 42.0153 90.8991 10
      vertex 42.0118 96.9737 10
    endloop
  endfacet
  facet normal -1 0.000471068 0
    outer loop
      vertex 41.1128 105.956 0
      vertex 41.1166 113.916 10
      vertex 41.1166 113.916 0
    endloop
  endfacet
  facet normal -1 0.000471068 0
    outer loop
      vertex 41.1166 113.916 10
      vertex 41.1128 105.956 0
      vertex 41.1128 105.956 10
    endloop
  endfacet
  facet normal 0 -1 0
    outer loop
      vertex 41.1128 105.956 0
      vertex 47.1241 105.956 10
      vertex 41.1128 105.956 10
    endloop
  endfacet
  facet normal 0 -1 -0
    outer loop
      vertex 47.1241 105.956 10
      vertex 41.1128 105.956 0
      vertex 47.1241 105.956 0
    endloop
  endfacet
  facet normal -1 0 0
    outer loop
      vertex 47.1241 97.9737 0
      vertex 47.1241 105.956 10
      vertex 47.1241 105.956 0
    endloop
  endfacet
  facet normal -1 -0 0
    outer loop
      vertex 47.1241 105.956 10
      vertex 47.1241 97.9737 0
      vertex 47.1241 97.9737 10
    endloop
  endfacet
  facet normal 0 1 -0
    outer loop
      vertex 47.1241 97.9737 0
      vertex 41.0106 97.9737 10
      vertex 47.1241 97.9737 10
    endloop
  endfacet
  facet normal 0 1 0
    outer loop
      vertex 41.0106 97.9737 10
      vertex 47.1241 97.9737 0
      vertex 41.0106 97.9737 0
    endloop
  endfacet
  facet normal -1 -0.00058014 0
    outer loop
      vertex 41.0153 89.8991 0
      vertex 41.0106 97.9737 10
      vertex 41.0106 97.9737 0
    endloop
  endfacet
  facet normal -1 -0.00058014 0
    outer loop
      vertex 41.0106 97.9737 10
      vertex 41.0153 89.8991 0
      vertex 41.0153 89.8991 10
    endloop
  endfacet
  facet normal 0 -1 0
    outer loop
      vertex 41.0153 89.8991 0
      vertex 236.087 89.8991 10
      vertex 41.0153 89.8991 10
    endloop
  endfacet
  facet normal 0 -1 -0
    outer loop
      vertex 236.087 89.8991 10
      vertex 41.0153 89.8991 0
      vertex 236.087 89.8991 0
    endloop
  endfacet
  facet normal 0.999975 -0.00706347 0
    outer loop
      vertex 236.087 89.8991 10
      vertex 236.257 113.923 0
      vertex 236.257 113.923 10
    endloop
  endfacet
  facet normal 0.999975 -0.00706347 0
    outer loop
      vertex 236.257 113.923 0
      vertex 236.087 89.8991 10
      vertex 236.087 89.8991 0
    endloop
  endfacet
  facet normal -3.36466e-05 1 0
    outer loop
      vertex 236.257 113.923 10
      vertex 190 113.921 8
      vertex 190 113.921 10
    endloop
  endfacet
  facet normal -3.35693e-05 1 4.4668e-07
    outer loop
      vertex 236.257 113.923 0
      vertex 180 113.921 8
      vertex 190 113.921 8
    endloop
  endfacet
  facet normal -3.35693e-05 1 4.4668e-07
    outer loop
      vertex 180 113.921 8
      vertex 236.257 113.923 0
      vertex 140 113.919 8
    endloop
  endfacet
  facet normal -3.35693e-05 1 4.4668e-07
    outer loop
      vertex 140 113.919 8
      vertex 236.257 113.923 0
      vertex 130 113.919 8
    endloop
  endfacet
  facet normal -3.37219e-05 1 8.24734e-07
    outer loop
      vertex 130 113.919 8
      vertex 41.1166 113.916 0
      vertex 80 113.917 8
    endloop
  endfacet
  facet normal -3.36233e-05 1 -2.70591e-07
    outer loop
      vertex 130 113.919 8
      vertex 236.257 113.923 0
      vertex 41.1166 113.916 0
    endloop
  endfacet
  facet normal -3.36466e-05 1 0
    outer loop
      vertex 236.257 113.923 0
      vertex 190 113.921 8
      vertex 236.257 113.923 10
    endloop
  endfacet
  facet normal -3.35693e-05 1 0
    outer loop
      vertex 180 113.921 8
      vertex 140 113.919 10
      vertex 180 113.921 10
    endloop
  endfacet
  facet normal -3.35693e-05 1 0
    outer loop
      vertex 140 113.919 10
      vertex 180 113.921 8
      vertex 140 113.919 8
    endloop
  endfacet
  facet normal -3.37219e-05 1 0
    outer loop
      vertex 130 113.919 8
      vertex 80 113.917 10
      vertex 130 113.919 10
    endloop
  endfacet
  facet normal -3.37219e-05 1 0
    outer loop
      vertex 80 113.917 10
      vertex 130 113.919 8
      vertex 80 113.917 8
    endloop
  endfacet
  facet normal -3.35463e-05 1 0
    outer loop
      vertex 70 113.917 8
      vertex 41.1166 113.916 10
      vertex 70 113.917 10
    endloop
  endfacet
  facet normal -3.35463e-05 1 0
    outer loop
      vertex 70 113.917 8
      vertex 41.1166 113.916 0
      vertex 41.1166 113.916 10
    endloop
  endfacet
  facet normal -3.35693e-05 1 8.30914e-08
    outer loop
      vertex 80 113.917 8
      vertex 41.1166 113.916 0
      vertex 70 113.917 8
    endloop
  endfacet
  facet normal -1 0 0
    outer loop
      vertex 70 113.917 8
      vertex 70 114 10
      vertex 70 114 8
    endloop
  endfacet
  facet normal -1 -0 0
    outer loop
      vertex 70 114 10
      vertex 70 113.917 8
      vertex 70 113.917 10
    endloop
  endfacet
  facet normal -1 0 0
    outer loop
      vertex 70 90.8991 8
      vertex 70 112.917 10
      vertex 70 112.917 8
    endloop
  endfacet
  facet normal -1 -0 0
    outer loop
      vertex 70 112.917 10
      vertex 70 90.8991 8
      vertex 70 90.8991 10
    endloop
  endfacet
  facet normal 1 -0 0
    outer loop
      vertex 80 113.917 10
      vertex 80 114 8
      vertex 80 114 10
    endloop
  endfacet
  facet normal 1 0 0
    outer loop
      vertex 80 114 8
      vertex 80 113.917 10
      vertex 80 113.917 8
    endloop
  endfacet
  facet normal 1 -0 0
    outer loop
      vertex 80 90.8991 10
      vertex 80 112.917 8
      vertex 80 112.917 10
    endloop
  endfacet
  facet normal 1 0 0
    outer loop
      vertex 80 112.917 8
      vertex 80 90.8991 10
      vertex 80 90.8991 8
    endloop
  endfacet
  facet normal 0 1 -0
    outer loop
      vertex 80 114 8
      vertex 70 114 10
      vertex 80 114 10
    endloop
  endfacet
  facet normal 0 1 0
    outer loop
      vertex 70 114 10
      vertex 80 114 8
      vertex 70 114 8
    endloop
  endfacet
  facet normal 0 0 -1
    outer loop
      vertex 70 113.917 8
      vertex 80 114 8
      vertex 80 113.917 8
    endloop
  endfacet
  facet normal -0 0 -1
    outer loop
      vertex 80 114 8
      vertex 70 113.917 8
      vertex 70 114 8
    endloop
  endfacet
  facet normal 0 0 -1
    outer loop
      vertex 70 90.8991 8
      vertex 80 112.917 8
      vertex 80 90.8991 8
    endloop
  endfacet
  facet normal 0 0 -1
    outer loop
      vertex 80 112.917 8
      vertex 70 90.8991 8
      vertex 70 112.917 8
    endloop
  endfacet
  facet normal -1 0 0
    outer loop
      vertex 130 113.919 8
      vertex 130 114 10
      vertex 130 114 8
    endloop
  endfacet
  facet normal -1 -0 0
    outer loop
      vertex 130 114 10
      vertex 130 113.919 8
      vertex 130 113.919 10
    endloop
  endfacet
  facet normal -1 0 0
    outer loop
      vertex 130 90.8991 8
      vertex 130 112.919 10
      vertex 130 112.919 8
    endloop
  endfacet
  facet normal -1 -0 0
    outer loop
      vertex 130 112.919 10
      vertex 130 90.8991 8
      vertex 130 90.8991 10
    endloop
  endfacet
  facet normal 1 -0 0
    outer loop
      vertex 140 113.919 10
      vertex 140 114 8
      vertex 140 114 10
    endloop
  endfacet
  facet normal 1 0 0
    outer loop
      vertex 140 114 8
      vertex 140 113.919 10
      vertex 140 113.919 8
    endloop
  endfacet
  facet normal 1 -0 0
    outer loop
      vertex 140 90.8991 10
      vertex 140 112.919 8
      vertex 140 112.919 10
    endloop
  endfacet
  facet normal 1 0 0
    outer loop
      vertex 140 112.919 8
      vertex 140 90.8991 10
      vertex 140 90.8991 8
    endloop
  endfacet
  facet normal 0 1 -0
    outer loop
      vertex 140 114 8
      vertex 130 114 10
      vertex 140 114 10
    endloop
  endfacet
  facet normal 0 1 0
    outer loop
      vertex 130 114 10
      vertex 140 114 8
      vertex 130 114 8
    endloop
  endfacet
  facet normal 0 0 -1
    outer loop
      vertex 130 113.919 8
      vertex 140 114 8
      vertex 140 113.919 8
    endloop
  endfacet
  facet normal -0 0 -1
    outer loop
      vertex 140 114 8
      vertex 130 113.919 8
      vertex 130 114 8
    endloop
  endfacet
  facet normal 0 0 -1
    outer loop
      vertex 130 90.8991 8
      vertex 140 112.919 8
      vertex 140 90.8991 8
    endloop
  endfacet
  facet normal 0 0 -1
    outer loop
      vertex 140 112.919 8
      vertex 130 90.8991 8
      vertex 130 112.919 8
    endloop
  endfacet
  facet normal -1 0 0
    outer loop
      vertex 180 113.921 8
      vertex 180 114 10
      vertex 180 114 8
    endloop
  endfacet
  facet normal -1 -0 0
    outer loop
      vertex 180 114 10
      vertex 180 113.921 8
      vertex 180 113.921 10
    endloop
  endfacet
  facet normal -1 0 0
    outer loop
      vertex 180 90.8991 8
      vertex 180 112.921 10
      vertex 180 112.921 8
    endloop
  endfacet
  facet normal -1 -0 0
    outer loop
      vertex 180 112.921 10
      vertex 180 90.8991 8
      vertex 180 90.8991 10
    endloop
  endfacet
  facet normal 1 -0 0
    outer loop
      vertex 190 113.921 10
      vertex 190 114 8
      vertex 190 114 10
    endloop
  endfacet
  facet normal 1 0 0
    outer loop
      vertex 190 114 8
      vertex 190 113.921 10
      vertex 190 113.921 8
    endloop
  endfacet
  facet normal 1 -0 0
    outer loop
      vertex 190 90.8991 10
      vertex 190 112.921 8
      vertex 190 112.921 10
    endloop
  endfacet
  facet normal 1 0 0
    outer loop
      vertex 190 112.921 8
      vertex 190 90.8991 10
      vertex 190 90.8991 8
    endloop
  endfacet
  facet normal 0 1 -0
    outer loop
      vertex 190 114 8
      vertex 180 114 10
      vertex 190 114 10
    endloop
  endfacet
  facet normal 0 1 0
    outer loop
      vertex 180 114 10
      vertex 190 114 8
      vertex 180 114 8
    endloop
  endfacet
  facet normal 0 0 -1
    outer loop
      vertex 180 113.921 8
      vertex 190 114 8
      vertex 190 113.921 8
    endloop
  endfacet
  facet normal -0 0 -1
    outer loop
      vertex 190 114 8
      vertex 180 113.921 8
      vertex 180 114 8
    endloop
  endfacet
  facet normal 0 0 -1
    outer loop
      vertex 180 90.8991 8
      vertex 190 112.921 8
      vertex 190 90.8991 8
    endloop
  endfacet
  facet normal 0 0 -1
    outer loop
      vertex 190 112.921 8
      vertex 180 90.8991 8
      vertex 180 112.921 8
    endloop
  endfacet
endsolid OpenSCAD_Model
