solid OpenSCAD_Model
  facet normal 0 -1 0
    outer loop
      vertex 111.25 220.505 0
      vertex 115.14 220.505 10
      vertex 111.25 220.505 10
    endloop
  endfacet
  facet normal 0 -1 -0
    outer loop
      vertex 115.14 220.505 10
      vertex 111.25 220.505 0
      vertex 115.14 220.505 0
    endloop
  endfacet
  facet normal 0 -1 0
    outer loop
      vertex 89.1747 220.505 0
      vertex 90.0134 220.505 10
      vertex 89.1747 220.505 10
    endloop
  endfacet
  facet normal 0 -1 -0
    outer loop
      vertex 90.0134 220.505 10
      vertex 89.1747 220.505 0
      vertex 90.0134 220.505 0
    endloop
  endfacet
  facet normal 0 -1 0
    outer loop
      vertex 32.2394 220.505 0
      vertex 36.1287 220.505 10
      vertex 32.2394 220.505 10
    endloop
  endfacet
  facet normal 0 -1 -0
    outer loop
      vertex 36.1287 220.505 10
      vertex 32.2394 220.505 0
      vertex 36.1287 220.505 0
    endloop
  endfacet
  facet normal 0 1 0
    outer loop
      vertex 127.693 69.7497 10
      vertex 80 69.7497 8
      vertex 80 69.7497 10
    endloop
  endfacet
  facet normal 0 1 0
    outer loop
      vertex 32.1577 69.7497 0
      vertex 80 69.7497 8
      vertex 127.693 69.7497 0
    endloop
  endfacet
  facet normal 0 1 -0
    outer loop
      vertex 127.693 69.7497 0
      vertex 80 69.7497 8
      vertex 127.693 69.7497 10
    endloop
  endfacet
  facet normal 0 1 -0
    outer loop
      vertex 70 69.7497 8
      vertex 32.1577 69.7497 10
      vertex 70 69.7497 10
    endloop
  endfacet
  facet normal 0 1 0
    outer loop
      vertex 80 69.7497 8
      vertex 32.1577 69.7497 0
      vertex 70 69.7497 8
    endloop
  endfacet
  facet normal 0 1 0
    outer loop
      vertex 70 69.7497 8
      vertex 32.1577 69.7497 0
      vertex 32.1577 69.7497 10
    endloop
  endfacet
  facet normal -0.0154199 -0.999881 0
    outer loop
      vertex 115.14 220.505 0
      vertex 121.767 220.403 10
      vertex 115.14 220.505 10
    endloop
  endfacet
  facet normal -0.0154199 -0.999881 -0
    outer loop
      vertex 121.767 220.403 10
      vertex 115.14 220.505 0
      vertex 121.767 220.403 0
    endloop
  endfacet
  facet normal 0 -1 0
    outer loop
      vertex 121.767 220.403 0
      vertex 127.717 220.403 10
      vertex 121.767 220.403 10
    endloop
  endfacet
  facet normal 0 -1 -0
    outer loop
      vertex 127.717 220.403 10
      vertex 121.767 220.403 0
      vertex 127.717 220.403 0
    endloop
  endfacet
  facet normal -1 0 0
    outer loop
      vertex 127.717 216.392 0
      vertex 127.717 220.403 10
      vertex 127.717 220.403 0
    endloop
  endfacet
  facet normal -1 -0 0
    outer loop
      vertex 127.717 220.403 10
      vertex 127.717 216.392 0
      vertex 127.717 216.392 10
    endloop
  endfacet
  facet normal -1 0 0
    outer loop
      vertex 127.693 69.7497 0
      vertex 127.693 216.053 10
      vertex 127.693 216.053 0
    endloop
  endfacet
  facet normal -1 -0 0
    outer loop
      vertex 127.693 216.053 10
      vertex 127.693 69.7497 0
      vertex 127.693 69.7497 10
    endloop
  endfacet
  facet normal -0.99761 0.0690892 0
    outer loop
      vertex 127.693 216.053 0
      vertex 127.717 216.392 10
      vertex 127.717 216.392 0
    endloop
  endfacet
  facet normal -0.99761 0.0690892 0
    outer loop
      vertex 127.717 216.392 10
      vertex 127.693 216.053 0
      vertex 127.693 216.053 10
    endloop
  endfacet
  facet normal -1 0 0
    outer loop
      vertex 90.0134 214.392 0
      vertex 90.0134 220.505 10
      vertex 90.0134 220.505 0
    endloop
  endfacet
  facet normal -1 -0 0
    outer loop
      vertex 90.0134 220.505 10
      vertex 90.0134 214.392 0
      vertex 90.0134 214.392 10
    endloop
  endfacet
  facet normal 0 -1 0
    outer loop
      vertex 90.0134 214.392 0
      vertex 111.25 214.392 10
      vertex 90.0134 214.392 10
    endloop
  endfacet
  facet normal 0 -1 -0
    outer loop
      vertex 111.25 214.392 10
      vertex 90.0134 214.392 0
      vertex 111.25 214.392 0
    endloop
  endfacet
  facet normal 1 -0 0
    outer loop
      vertex 111.25 214.392 10
      vertex 111.25 220.505 0
      vertex 111.25 220.505 10
    endloop
  endfacet
  facet normal 1 0 0
    outer loop
      vertex 111.25 220.505 0
      vertex 111.25 214.392 10
      vertex 111.25 214.392 0
    endloop
  endfacet
  facet normal -0.0133682 -0.999911 0
    outer loop
      vertex 36.1287 220.505 0
      vertex 43.7722 220.403 10
      vertex 36.1287 220.505 10
    endloop
  endfacet
  facet normal -0.0133682 -0.999911 -0
    outer loop
      vertex 43.7722 220.403 10
      vertex 36.1287 220.505 0
      vertex 43.7722 220.403 0
    endloop
  endfacet
  facet normal 0 -1 0
    outer loop
      vertex 43.7722 220.403 0
      vertex 49.6616 220.403 10
      vertex 43.7722 220.403 10
    endloop
  endfacet
  facet normal 0 -1 -0
    outer loop
      vertex 49.6616 220.403 10
      vertex 43.7722 220.403 0
      vertex 49.6616 220.403 0
    endloop
  endfacet
  facet normal 0 -1 0
    outer loop
      vertex 70.5597 220.403 0
      vertex 76.45 220.403 8
      vertex 70.5597 220.403 8
    endloop
  endfacet
  facet normal 0 -1 -0
    outer loop
      vertex 76.45 220.403 8
      vertex 70.5597 220.403 0
      vertex 76.45 220.403 0
    endloop
  endfacet
  facet normal 0.00802887 -0.999968 0
    outer loop
      vertex 76.45 220.403 8
      vertex 76.45 220.403 0
      vertex 80 220.431 8
    endloop
  endfacet
  facet normal 0.00803104 -0.999968 0
    outer loop
      vertex 80 220.431 8
      vertex 89.1747 220.505 10
      vertex 80 220.431 10
    endloop
  endfacet
  facet normal 0.00803043 -0.999968 -6.95986e-07
    outer loop
      vertex 89.1747 220.505 0
      vertex 80 220.431 8
      vertex 76.45 220.403 0
    endloop
  endfacet
  facet normal 0.00803104 -0.999968 0
    outer loop
      vertex 80 220.431 8
      vertex 89.1747 220.505 0
      vertex 89.1747 220.505 10
    endloop
  endfacet
  facet normal 0 -1 0
    outer loop
      vertex 49.6616 214.392 10
      vertex 70 214.392 8
      vertex 70 214.392 10
    endloop
  endfacet
  facet normal 0 -1 0
    outer loop
      vertex 49.6616 214.392 0
      vertex 70 214.392 8
      vertex 49.6616 214.392 10
    endloop
  endfacet
  facet normal 0 -1 0
    outer loop
      vertex 70.5597 214.392 0
      vertex 70 214.392 8
      vertex 49.6616 214.392 0
    endloop
  endfacet
  facet normal 0 -1 0
    outer loop
      vertex 70 214.392 8
      vertex 70.5597 214.392 0
      vertex 70.5597 214.392 8
    endloop
  endfacet
  facet normal 1 -0 0
    outer loop
      vertex 70.5597 214.392 8
      vertex 70.5597 220.403 0
      vertex 70.5597 220.403 8
    endloop
  endfacet
  facet normal 1 0 0
    outer loop
      vertex 70.5597 220.403 0
      vertex 70.5597 214.392 8
      vertex 70.5597 214.392 0
    endloop
  endfacet
  facet normal -1 0 0
    outer loop
      vertex 49.6616 214.392 0
      vertex 49.6616 220.403 10
      vertex 49.6616 220.403 0
    endloop
  endfacet
  facet normal -1 -0 0
    outer loop
      vertex 49.6616 220.403 10
      vertex 49.6616 214.392 0
      vertex 49.6616 214.392 10
    endloop
  endfacet
  facet normal 1 -0.000435773 0
    outer loop
      vertex 32.1577 69.7497 10
      vertex 32.2206 214.048 0
      vertex 32.2206 214.048 10
    endloop
  endfacet
  facet normal 1 -0.000435773 0
    outer loop
      vertex 32.2206 214.048 0
      vertex 32.1577 69.7497 10
      vertex 32.1577 69.7497 0
    endloop
  endfacet
  facet normal 0.998543 -0.0539616 0
    outer loop
      vertex 32.2206 214.048 10
      vertex 32.2394 214.395 0
      vertex 32.2394 214.395 10
    endloop
  endfacet
  facet normal 0.998543 -0.0539616 0
    outer loop
      vertex 32.2394 214.395 0
      vertex 32.2206 214.048 10
      vertex 32.2206 214.048 0
    endloop
  endfacet
  facet normal 1 -0 0
    outer loop
      vertex 32.2394 214.395 10
      vertex 32.2394 220.505 0
      vertex 32.2394 220.505 10
    endloop
  endfacet
  facet normal 1 0 0
    outer loop
      vertex 32.2394 220.505 0
      vertex 32.2394 214.395 10
      vertex 32.2394 214.395 0
    endloop
  endfacet
  facet normal 0 0 -1
    outer loop
      vertex 31.2206 215.048 0
      vertex 32.2394 214.395 0
      vertex 32.2206 214.048 0
    endloop
  endfacet
  facet normal 0 0 -1
    outer loop
      vertex 70.5597 214.392 0
      vertex 69.5597 215.392 0
      vertex 70.5597 220.403 0
    endloop
  endfacet
  facet normal 0 0 -1
    outer loop
      vertex 70.5597 214.392 0
      vertex 50.6616 215.392 0
      vertex 69.5597 215.392 0
    endloop
  endfacet
  facet normal 0 0 -1
    outer loop
      vertex 49.6616 214.392 0
      vertex 50.6616 215.392 0
      vertex 70.5597 214.392 0
    endloop
  endfacet
  facet normal 0 0 -1
    outer loop
      vertex 49.6616 220.403 0
      vertex 50.6616 215.392 0
      vertex 49.6616 214.392 0
    endloop
  endfacet
  facet normal 0 0 -1
    outer loop
      vertex 50.6616 215.392 0
      vertex 49.6616 220.403 0
      vertex 50.6616 221.403 0
    endloop
  endfacet
  facet normal 0 0 -1
    outer loop
      vertex 49.6616 220.403 0
      vertex 44.7722 221.403 0
      vertex 50.6616 221.403 0
    endloop
  endfacet
  facet normal 0 0 -1
    outer loop
      vertex 43.7722 220.403 0
      vertex 44.7722 221.403 0
      vertex 49.6616 220.403 0
    endloop
  endfacet
  facet normal 0 0 -1
    outer loop
      vertex 43.7722 220.403 0
      vertex 37.1287 221.505 0
      vertex 44.7722 221.403 0
    endloop
  endfacet
  facet normal 0 0 -1
    outer loop
      vertex 36.1287 220.505 0
      vertex 37.1287 221.505 0
      vertex 43.7722 220.403 0
    endloop
  endfacet
  facet normal 0 0 -1
    outer loop
      vertex 32.2394 220.505 0
      vertex 37.1287 221.505 0
      vertex 36.1287 220.505 0
    endloop
  endfacet
  facet normal 0 0 -1
    outer loop
      vertex 31.2206 215.048 0
      vertex 32.2206 214.048 0
      vertex 32.1577 69.7497 0
    endloop
  endfacet
  facet normal 0 0 -1
    outer loop
      vertex 32.2394 214.395 0
      vertex 31.2394 215.395 0
      vertex 32.2394 220.505 0
    endloop
  endfacet
  facet normal 0 0 -1
    outer loop
      vertex 32.2394 220.505 0
      vertex 31.2394 221.505 0
      vertex 37.1287 221.505 0
    endloop
  endfacet
  facet normal 0 0 -1
    outer loop
      vertex 31.2394 221.505 0
      vertex 32.2394 220.505 0
      vertex 31.2394 215.395 0
    endloop
  endfacet
  facet normal 0 0 -1
    outer loop
      vertex 111.25 214.392 0
      vertex 110.25 215.392 0
      vertex 111.25 220.505 0
    endloop
  endfacet
  facet normal 0 0 -1
    outer loop
      vertex 111.25 214.392 0
      vertex 91.0134 215.392 0
      vertex 110.25 215.392 0
    endloop
  endfacet
  facet normal 0 0 -1
    outer loop
      vertex 90.0134 214.392 0
      vertex 91.0134 215.392 0
      vertex 111.25 214.392 0
    endloop
  endfacet
  facet normal 0 0 -1
    outer loop
      vertex 90.0134 220.505 0
      vertex 91.0134 215.392 0
      vertex 90.0134 214.392 0
    endloop
  endfacet
  facet normal 0 0 -1
    outer loop
      vertex 91.0134 215.392 0
      vertex 90.0134 220.505 0
      vertex 91.0134 221.505 0
    endloop
  endfacet
  facet normal 0 0 -1
    outer loop
      vertex 89.1747 220.505 0
      vertex 91.0134 221.505 0
      vertex 90.0134 220.505 0
    endloop
  endfacet
  facet normal 0 0 -1
    outer loop
      vertex 89.1747 220.505 0
      vertex 88.1747 221.505 0
      vertex 91.0134 221.505 0
    endloop
  endfacet
  facet normal 0 0 -1
    outer loop
      vertex 76.45 220.403 0
      vertex 88.1747 221.505 0
      vertex 89.1747 220.505 0
    endloop
  endfacet
  facet normal 0 0 -1
    outer loop
      vertex 76.45 220.403 0
      vertex 75.45 221.403 0
      vertex 88.1747 221.505 0
    endloop
  endfacet
  facet normal 0 0 -1
    outer loop
      vertex 70.5597 220.403 0
      vertex 75.45 221.403 0
      vertex 76.45 220.403 0
    endloop
  endfacet
  facet normal 0 0 -1
    outer loop
      vertex 70.5597 220.403 0
      vertex 69.5597 221.403 0
      vertex 75.45 221.403 0
    endloop
  endfacet
  facet normal 0 0 -1
    outer loop
      vertex 69.5597 221.403 0
      vertex 70.5597 220.403 0
      vertex 69.5597 215.392 0
    endloop
  endfacet
  facet normal 0 0 -1
    outer loop
      vertex 127.693 69.7497 0
      vertex 128.693 215.053 0
      vertex 128.693 68.7497 0
    endloop
  endfacet
  facet normal -0 0 -1
    outer loop
      vertex 128.693 215.053 0
      vertex 127.693 69.7497 0
      vertex 127.693 216.053 0
    endloop
  endfacet
  facet normal 0 0 -1
    outer loop
      vertex 128.693 68.7497 0
      vertex 32.1577 69.7497 0
      vertex 127.693 69.7497 0
    endloop
  endfacet
  facet normal 0 0 -1
    outer loop
      vertex 32.2394 214.395 0
      vertex 31.2206 215.048 0
      vertex 31.2394 215.395 0
    endloop
  endfacet
  facet normal -0 0 -1
    outer loop
      vertex 32.1577 69.7497 0
      vertex 31.1569 68.7497 0
      vertex 31.2206 215.048 0
    endloop
  endfacet
  facet normal 0 0 -1
    outer loop
      vertex 31.1569 68.7497 0
      vertex 32.1577 69.7497 0
      vertex 128.693 68.7497 0
    endloop
  endfacet
  facet normal 0 0 -1
    outer loop
      vertex 127.717 216.392 0
      vertex 128.717 215.392 0
      vertex 128.693 215.053 0
    endloop
  endfacet
  facet normal 0 0 -1
    outer loop
      vertex 128.717 215.392 0
      vertex 127.717 216.392 0
      vertex 128.717 221.403 0
    endloop
  endfacet
  facet normal 0 0 -1
    outer loop
      vertex 127.717 220.403 0
      vertex 128.717 221.403 0
      vertex 127.717 216.392 0
    endloop
  endfacet
  facet normal 0 0 -1
    outer loop
      vertex 127.717 220.403 0
      vertex 122.767 221.403 0
      vertex 128.717 221.403 0
    endloop
  endfacet
  facet normal 0 0 -1
    outer loop
      vertex 121.767 220.403 0
      vertex 122.767 221.403 0
      vertex 127.717 220.403 0
    endloop
  endfacet
  facet normal 0 0 -1
    outer loop
      vertex 121.767 220.403 0
      vertex 116.14 221.505 0
      vertex 122.767 221.403 0
    endloop
  endfacet
  facet normal 0 0 -1
    outer loop
      vertex 115.14 220.505 0
      vertex 116.14 221.505 0
      vertex 121.767 220.403 0
    endloop
  endfacet
  facet normal 0 0 -1
    outer loop
      vertex 111.25 220.505 0
      vertex 116.14 221.505 0
      vertex 115.14 220.505 0
    endloop
  endfacet
  facet normal 0 0 -1
    outer loop
      vertex 111.25 220.505 0
      vertex 110.25 221.505 0
      vertex 116.14 221.505 0
    endloop
  endfacet
  facet normal 0 0 -1
    outer loop
      vertex 110.25 221.505 0
      vertex 111.25 220.505 0
      vertex 110.25 215.392 0
    endloop
  endfacet
  facet normal 0 0 -1
    outer loop
      vertex 128.693 215.053 0
      vertex 127.693 216.053 0
      vertex 127.717 216.392 0
    endloop
  endfacet
  facet normal 0 0 1
    outer loop
      vertex 50.6616 221.403 10
      vertex 49.6616 220.403 10
      vertex 50.6616 215.392 10
    endloop
  endfacet
  facet normal -0 0 1
    outer loop
      vertex 44.7722 221.403 10
      vertex 49.6616 220.403 10
      vertex 50.6616 221.403 10
    endloop
  endfacet
  facet normal 0 0 1
    outer loop
      vertex 44.7722 221.403 10
      vertex 43.7722 220.403 10
      vertex 49.6616 220.403 10
    endloop
  endfacet
  facet normal 0 0 1
    outer loop
      vertex 37.1287 221.505 10
      vertex 43.7722 220.403 10
      vertex 44.7722 221.403 10
    endloop
  endfacet
  facet normal 0 0 1
    outer loop
      vertex 37.1287 221.505 10
      vertex 36.1287 220.505 10
      vertex 43.7722 220.403 10
    endloop
  endfacet
  facet normal 0 0 1
    outer loop
      vertex 37.1287 221.505 10
      vertex 32.2394 220.505 10
      vertex 36.1287 220.505 10
    endloop
  endfacet
  facet normal -0 0 1
    outer loop
      vertex 31.2394 215.395 10
      vertex 32.2394 214.395 10
      vertex 32.2394 220.505 10
    endloop
  endfacet
  facet normal -0 0 1
    outer loop
      vertex 31.2206 215.048 10
      vertex 32.2394 214.395 10
      vertex 31.2394 215.395 10
    endloop
  endfacet
  facet normal 0 0 1
    outer loop
      vertex 31.2394 215.395 10
      vertex 32.2394 220.505 10
      vertex 31.2394 221.505 10
    endloop
  endfacet
  facet normal -0 0 1
    outer loop
      vertex 31.2394 221.505 10
      vertex 32.2394 220.505 10
      vertex 37.1287 221.505 10
    endloop
  endfacet
  facet normal 0 0 1
    outer loop
      vertex 69.5597 215.392 10
      vertex 75.45 221.403 10
      vertex 69.5597 221.403 10
    endloop
  endfacet
  facet normal 0 0 1
    outer loop
      vertex 75.45 221.403 10
      vertex 69.5597 215.392 10
      vertex 70 214.392 10
    endloop
  endfacet
  facet normal -0 0 1
    outer loop
      vertex 50.6616 215.392 10
      vertex 70 214.392 10
      vertex 69.5597 215.392 10
    endloop
  endfacet
  facet normal 0 0 1
    outer loop
      vertex 50.6616 215.392 10
      vertex 49.6616 214.392 10
      vertex 70 214.392 10
    endloop
  endfacet
  facet normal 0 0 1
    outer loop
      vertex 49.6616 214.392 10
      vertex 50.6616 215.392 10
      vertex 49.6616 220.403 10
    endloop
  endfacet
  facet normal 0 0 1
    outer loop
      vertex 91.0134 221.505 10
      vertex 90.0134 220.505 10
      vertex 91.0134 215.392 10
    endloop
  endfacet
  facet normal 0 0 1
    outer loop
      vertex 91.0134 221.505 10
      vertex 89.1747 220.505 10
      vertex 90.0134 220.505 10
    endloop
  endfacet
  facet normal -0 0 1
    outer loop
      vertex 88.1747 221.505 10
      vertex 89.1747 220.505 10
      vertex 91.0134 221.505 10
    endloop
  endfacet
  facet normal 0 0 1
    outer loop
      vertex 88.1747 221.505 10
      vertex 80 220.431 10
      vertex 89.1747 220.505 10
    endloop
  endfacet
  facet normal 0 0 1
    outer loop
      vertex 70 214.392 10
      vertex 80 220.431 10
      vertex 75.45 221.403 10
    endloop
  endfacet
  facet normal -0 0 1
    outer loop
      vertex 75.45 221.403 10
      vertex 80 220.431 10
      vertex 88.1747 221.505 10
    endloop
  endfacet
  facet normal -0 0 1
    outer loop
      vertex 127.717 216.392 10
      vertex 128.717 215.392 10
      vertex 128.717 221.403 10
    endloop
  endfacet
  facet normal -0 0 1
    outer loop
      vertex 127.693 216.053 10
      vertex 128.717 215.392 10
      vertex 127.717 216.392 10
    endloop
  endfacet
  facet normal 0 0 1
    outer loop
      vertex 127.717 216.392 10
      vertex 128.717 221.403 10
      vertex 127.717 220.403 10
    endloop
  endfacet
  facet normal -0 0 1
    outer loop
      vertex 122.767 221.403 10
      vertex 127.717 220.403 10
      vertex 128.717 221.403 10
    endloop
  endfacet
  facet normal 0 0 1
    outer loop
      vertex 122.767 221.403 10
      vertex 121.767 220.403 10
      vertex 127.717 220.403 10
    endloop
  endfacet
  facet normal 0 0 1
    outer loop
      vertex 116.14 221.505 10
      vertex 121.767 220.403 10
      vertex 122.767 221.403 10
    endloop
  endfacet
  facet normal 0 0 1
    outer loop
      vertex 116.14 221.505 10
      vertex 115.14 220.505 10
      vertex 121.767 220.403 10
    endloop
  endfacet
  facet normal 0 0 1
    outer loop
      vertex 116.14 221.505 10
      vertex 111.25 220.505 10
      vertex 115.14 220.505 10
    endloop
  endfacet
  facet normal -0 0 1
    outer loop
      vertex 110.25 221.505 10
      vertex 111.25 220.505 10
      vertex 116.14 221.505 10
    endloop
  endfacet
  facet normal 0 0 1
    outer loop
      vertex 110.25 215.392 10
      vertex 111.25 220.505 10
      vertex 110.25 221.505 10
    endloop
  endfacet
  facet normal 0 0 1
    outer loop
      vertex 111.25 220.505 10
      vertex 110.25 215.392 10
      vertex 111.25 214.392 10
    endloop
  endfacet
  facet normal -0 0 1
    outer loop
      vertex 91.0134 215.392 10
      vertex 111.25 214.392 10
      vertex 110.25 215.392 10
    endloop
  endfacet
  facet normal 0 0 1
    outer loop
      vertex 91.0134 215.392 10
      vertex 90.0134 214.392 10
      vertex 111.25 214.392 10
    endloop
  endfacet
  facet normal 0 0 1
    outer loop
      vertex 90.0134 214.392 10
      vertex 91.0134 215.392 10
      vertex 90.0134 220.505 10
    endloop
  endfacet
  facet normal 0 0 1
    outer loop
      vertex 128.717 215.392 10
      vertex 127.693 216.053 10
      vertex 128.693 215.053 10
    endloop
  endfacet
  facet normal 0 0 1
    outer loop
      vertex 127.693 69.7497 10
      vertex 128.693 215.053 10
      vertex 127.693 216.053 10
    endloop
  endfacet
  facet normal 0 0 1
    outer loop
      vertex 128.693 215.053 10
      vertex 127.693 69.7497 10
      vertex 128.693 68.7497 10
    endloop
  endfacet
  facet normal -0 0 1
    outer loop
      vertex 80 69.7497 10
      vertex 128.693 68.7497 10
      vertex 127.693 69.7497 10
    endloop
  endfacet
  facet normal 0 0 1
    outer loop
      vertex 80 220.431 10
      vertex 70 214.392 10
      vertex 80 69.7497 10
    endloop
  endfacet
  facet normal 0 0 1
    outer loop
      vertex 70 69.7497 10
      vertex 80 69.7497 10
      vertex 70 214.392 10
    endloop
  endfacet
  facet normal -0 0 1
    outer loop
      vertex 70 69.7497 10
      vertex 128.693 68.7497 10
      vertex 80 69.7497 10
    endloop
  endfacet
  facet normal 0 0 1
    outer loop
      vertex 31.1569 68.7497 10
      vertex 70 69.7497 10
      vertex 32.1577 69.7497 10
    endloop
  endfacet
  facet normal 0 0 1
    outer loop
      vertex 32.2394 214.395 10
      vertex 31.2206 215.048 10
      vertex 32.2206 214.048 10
    endloop
  endfacet
  facet normal 0 0 1
    outer loop
      vertex 32.2206 214.048 10
      vertex 31.2206 215.048 10
      vertex 32.1577 69.7497 10
    endloop
  endfacet
  facet normal 0 0 1
    outer loop
      vertex 70 69.7497 10
      vertex 31.1569 68.7497 10
      vertex 128.693 68.7497 10
    endloop
  endfacet
  facet normal 0 0 1
    outer loop
      vertex 31.1569 68.7497 10
      vertex 32.1577 69.7497 10
      vertex 31.2206 215.048 10
    endloop
  endfacet
  facet normal 0.99761 -0.0690892 0
    outer loop
      vertex 128.693 215.053 10
      vertex 128.717 215.392 0
      vertex 128.717 215.392 10
    endloop
  endfacet
  facet normal 0.99761 -0.0690892 0
    outer loop
      vertex 128.717 215.392 0
      vertex 128.693 215.053 10
      vertex 128.693 215.053 0
    endloop
  endfacet
  facet normal 1 -0 0
    outer loop
      vertex 128.717 215.392 10
      vertex 128.717 221.403 0
      vertex 128.717 221.403 10
    endloop
  endfacet
  facet normal 1 0 0
    outer loop
      vertex 128.717 221.403 0
      vertex 128.717 215.392 10
      vertex 128.717 215.392 0
    endloop
  endfacet
  facet normal 0 1 -0
    outer loop
      vertex 128.717 221.403 0
      vertex 122.767 221.403 10
      vertex 128.717 221.403 10
    endloop
  endfacet
  facet normal 0 1 0
    outer loop
      vertex 122.767 221.403 10
      vertex 128.717 221.403 0
      vertex 122.767 221.403 0
    endloop
  endfacet
  facet normal 0.0154199 0.999881 -0
    outer loop
      vertex 122.767 221.403 0
      vertex 116.14 221.505 10
      vertex 122.767 221.403 10
    endloop
  endfacet
  facet normal 0.0154199 0.999881 0
    outer loop
      vertex 116.14 221.505 10
      vertex 122.767 221.403 0
      vertex 116.14 221.505 0
    endloop
  endfacet
  facet normal 0 1 -0
    outer loop
      vertex 116.14 221.505 0
      vertex 110.25 221.505 10
      vertex 116.14 221.505 10
    endloop
  endfacet
  facet normal 0 1 0
    outer loop
      vertex 110.25 221.505 10
      vertex 116.14 221.505 0
      vertex 110.25 221.505 0
    endloop
  endfacet
  facet normal -1 0 0
    outer loop
      vertex 110.25 215.392 0
      vertex 110.25 221.505 10
      vertex 110.25 221.505 0
    endloop
  endfacet
  facet normal -1 -0 0
    outer loop
      vertex 110.25 221.505 10
      vertex 110.25 215.392 0
      vertex 110.25 215.392 10
    endloop
  endfacet
  facet normal 0 1 -0
    outer loop
      vertex 110.25 215.392 0
      vertex 91.0134 215.392 10
      vertex 110.25 215.392 10
    endloop
  endfacet
  facet normal 0 1 0
    outer loop
      vertex 91.0134 215.392 10
      vertex 110.25 215.392 0
      vertex 91.0134 215.392 0
    endloop
  endfacet
  facet normal 1 -0 0
    outer loop
      vertex 91.0134 215.392 10
      vertex 91.0134 221.505 0
      vertex 91.0134 221.505 10
    endloop
  endfacet
  facet normal 1 0 0
    outer loop
      vertex 91.0134 221.505 0
      vertex 91.0134 215.392 10
      vertex 91.0134 215.392 0
    endloop
  endfacet
  facet normal 0 1 -0
    outer loop
      vertex 91.0134 221.505 0
      vertex 88.1747 221.505 10
      vertex 91.0134 221.505 10
    endloop
  endfacet
  facet normal 0 1 0
    outer loop
      vertex 88.1747 221.505 10
      vertex 91.0134 221.505 0
      vertex 88.1747 221.505 0
    endloop
  endfacet
  facet normal -0.00803043 0.999968 0
    outer loop
      vertex 88.1747 221.505 0
      vertex 75.45 221.403 10
      vertex 88.1747 221.505 10
    endloop
  endfacet
  facet normal -0.00803043 0.999968 0
    outer loop
      vertex 75.45 221.403 10
      vertex 88.1747 221.505 0
      vertex 75.45 221.403 0
    endloop
  endfacet
  facet normal 0 1 -0
    outer loop
      vertex 75.45 221.403 0
      vertex 69.5597 221.403 10
      vertex 75.45 221.403 10
    endloop
  endfacet
  facet normal 0 1 0
    outer loop
      vertex 69.5597 221.403 10
      vertex 75.45 221.403 0
      vertex 69.5597 221.403 0
    endloop
  endfacet
  facet normal -1 0 0
    outer loop
      vertex 69.5597 215.392 0
      vertex 69.5597 221.403 10
      vertex 69.5597 221.403 0
    endloop
  endfacet
  facet normal -1 -0 0
    outer loop
      vertex 69.5597 221.403 10
      vertex 69.5597 215.392 0
      vertex 69.5597 215.392 10
    endloop
  endfacet
  facet normal 0 1 -0
    outer loop
      vertex 69.5597 215.392 0
      vertex 50.6616 215.392 10
      vertex 69.5597 215.392 10
    endloop
  endfacet
  facet normal 0 1 0
    outer loop
      vertex 50.6616 215.392 10
      vertex 69.5597 215.392 0
      vertex 50.6616 215.392 0
    endloop
  endfacet
  facet normal 1 -0 0
    outer loop
      vertex 50.6616 215.392 10
      vertex 50.6616 221.403 0
      vertex 50.6616 221.403 10
    endloop
  endfacet
  facet normal 1 0 0
    outer loop
      vertex 50.6616 221.403 0
      vertex 50.6616 215.392 10
      vertex 50.6616 215.392 0
    endloop
  endfacet
  facet normal 0 1 -0
    outer loop
      vertex 50.6616 221.403 0
      vertex 44.7722 221.403 10
      vertex 50.6616 221.403 10
    endloop
  endfacet
  facet normal 0 1 0
    outer loop
      vertex 44.7722 221.403 10
      vertex 50.6616 221.403 0
      vertex 44.7722 221.403 0
    endloop
  endfacet
  facet normal 0.0133682 0.999911 -0
    outer loop
      vertex 44.7722 221.403 0
      vertex 37.1287 221.505 10
      vertex 44.7722 221.403 10
    endloop
  endfacet
  facet normal 0.0133682 0.999911 0
    outer loop
      vertex 37.1287 221.505 10
      vertex 44.7722 221.403 0
      vertex 37.1287 221.505 0
    endloop
  endfacet
  facet normal 0 1 -0
    outer loop
      vertex 37.1287 221.505 0
      vertex 31.2394 221.505 10
      vertex 37.1287 221.505 10
    endloop
  endfacet
  facet normal 0 1 0
    outer loop
      vertex 31.2394 221.505 10
      vertex 37.1287 221.505 0
      vertex 31.2394 221.505 0
    endloop
  endfacet
  facet normal -1 0 0
    outer loop
      vertex 31.2394 215.395 0
      vertex 31.2394 221.505 10
      vertex 31.2394 221.505 0
    endloop
  endfacet
  facet normal -1 -0 0
    outer loop
      vertex 31.2394 221.505 10
      vertex 31.2394 215.395 0
      vertex 31.2394 215.395 10
    endloop
  endfacet
  facet normal -0.998542 0.0539726 0
    outer loop
      vertex 31.2206 215.048 0
      vertex 31.2394 215.395 10
      vertex 31.2394 215.395 0
    endloop
  endfacet
  facet normal -0.998542 0.0539726 0
    outer loop
      vertex 31.2394 215.395 10
      vertex 31.2206 215.048 0
      vertex 31.2206 215.048 10
    endloop
  endfacet
  facet normal -1 0.000435747 0
    outer loop
      vertex 31.1569 68.7497 0
      vertex 31.2206 215.048 10
      vertex 31.2206 215.048 0
    endloop
  endfacet
  facet normal -1 0.000435747 0
    outer loop
      vertex 31.2206 215.048 10
      vertex 31.1569 68.7497 0
      vertex 31.1569 68.7497 10
    endloop
  endfacet
  facet normal 0 -1 0
    outer loop
      vertex 31.1569 68.7497 0
      vertex 128.693 68.7497 10
      vertex 31.1569 68.7497 10
    endloop
  endfacet
  facet normal 0 -1 -0
    outer loop
      vertex 128.693 68.7497 10
      vertex 31.1569 68.7497 0
      vertex 128.693 68.7497 0
    endloop
  endfacet
  facet normal 1 -0 0
    outer loop
      vertex 128.693 68.7497 10
      vertex 128.693 215.053 0
      vertex 128.693 215.053 10
    endloop
  endfacet
  facet normal 1 0 0
    outer loop
      vertex 128.693 215.053 0
      vertex 128.693 68.7497 10
      vertex 128.693 68.7497 0
    endloop
  endfacet
  facet normal -1 0 0
    outer loop
      vertex 70 69.7497 8
      vertex 70 214.392 10
      vertex 70 214.392 8
    endloop
  endfacet
  facet normal -1 -0 0
    outer loop
      vertex 70 214.392 10
      vertex 70 69.7497 8
      vertex 70 69.7497 10
    endloop
  endfacet
  facet normal 1 -0 0
    outer loop
      vertex 80 69.7497 10
      vertex 80 220.431 8
      vertex 80 220.431 10
    endloop
  endfacet
  facet normal 1 0 0
    outer loop
      vertex 80 220.431 8
      vertex 80 69.7497 10
      vertex 80 69.7497 8
    endloop
  endfacet
  facet normal 0 0 -1
    outer loop
      vertex 70.5597 214.392 8
      vertex 80 220.431 8
      vertex 80 69.7497 8
    endloop
  endfacet
  facet normal 0 0 -1
    outer loop
      vertex 80 220.431 8
      vertex 70.5597 214.392 8
      vertex 76.45 220.403 8
    endloop
  endfacet
  facet normal 0 0 -1
    outer loop
      vertex 70 69.7497 8
      vertex 70.5597 214.392 8
      vertex 80 69.7497 8
    endloop
  endfacet
  facet normal -0 0 -1
    outer loop
      vertex 70.5597 214.392 8
      vertex 70 69.7497 8
      vertex 70 214.392 8
    endloop
  endfacet
  facet normal -0 0 -1
    outer loop
      vertex 76.45 220.403 8
      vertex 70.5597 214.392 8
      vertex 70.5597 220.403 8
    endloop
  endfacet
endsolid OpenSCAD_Model
